<?xml version="1.0" encoding="UTF-8"?>
<svg version="1.1" xmlns="http://www.w3.org/2000/svg" width="580" height="126">
<path d="M0 0 C12.1179958 -0.85875561 22.12023468 2.20651341 31.375 10 C33.9588012 14.77009452 33.87070291 19.70535807 33 25 C30.77052562 30.98269025 27.15351506 35.59987457 22.9375 40.3125 C22.40833984 40.91900391 21.87917969 41.52550781 21.33398438 42.15039062 C18.96447825 44.85287628 16.55997075 47.47583963 14 50 C15.45042909 53.34584964 17.27738825 55.50054036 19.87890625 58.0390625 C20.63494141 58.78414062 21.39097656 59.52921875 22.16992188 60.296875 C23.35424805 61.44929688 23.35424805 61.44929688 24.5625 62.625 C26.12847891 64.15663169 27.69238939 65.69038195 29.25390625 67.2265625 C29.94814697 67.90283691 30.6423877 68.57911133 31.35766602 69.27587891 C34.45581673 72.52831541 34.34790986 75.39098231 34.265625 79.7109375 C33.85513193 83.24842192 32.23104931 85.37661393 30 88 C29.25105469 88.928125 28.50210938 89.85625 27.73046875 90.8125 C25.50640826 93.55842665 23.2611955 96.28463276 21 99 C17.79614904 97.58912451 15.66752174 95.9074692 13.21289062 93.42407227 C12.48533569 92.69313858 11.75778076 91.9622049 11.00817871 91.2091217 C10.23204224 90.4195256 9.45590576 89.6299295 8.65625 88.81640625 C7.85014282 88.0050975 7.04403564 87.19378876 6.21350098 86.3578949 C3.63754598 83.76412665 1.068366 81.16378144 -1.5 78.5625 C-4.06920944 75.96565173 -6.63986464 73.37027798 -9.21350098 70.77781677 C-10.81451003 69.16457674 -12.41283817 67.5486707 -14.00817871 65.92982483 C-14.73573364 65.19573898 -15.46328857 64.46165314 -16.21289062 63.70532227 C-16.84924438 63.06071548 -17.48559814 62.4161087 -18.14123535 61.75196838 C-22.03088131 58.085804 -24.61197596 56.61227546 -30 56 C-30.07227711 63.58830253 -30.07227711 63.58830253 -26.4375 69.9375 C-24.82588941 71.04727981 -24.82588941 71.04727981 -23 72 C-22.28199219 72.38929687 -21.56398437 72.77859375 -20.82421875 73.1796875 C-18.90661636 74.16744007 -16.9555406 75.08966213 -15 76 C-16.63963796 81.94615694 -19.62375462 87.03522078 -22.625 92.375 C-23.140625 93.30183594 -23.65625 94.22867188 -24.1875 95.18359375 C-25.45382811 97.45829425 -26.72475925 99.73028792 -28 102 C-28.66 102 -29.32 102 -30 102 C-30.82177734 100.60974609 -30.82177734 100.60974609 -31.66015625 99.19140625 C-34.44251387 95.39643767 -37.12592087 94.33254662 -41.4375 92.9375 C-46.66232548 91.20616648 -50.57943739 89.50277451 -54 85 C-55.64091654 77.93009362 -54.79786553 71.36338683 -51 65.1875 C-48.45285245 61.62461876 -45.62399459 58.55902389 -42.5625 55.4375 C-39.69642145 52.30220076 -38.35441699 50.14733571 -38 45.875 C-38.3468606 41.79465803 -39.50438354 39.98760383 -42.5625 37.3125 C-44.04011809 36.20626186 -45.51932214 35.10213934 -47 34 C-48.35675038 32.71172113 -49.69183763 31.40008934 -51 30.0625 C-51.5775 29.47597656 -52.155 28.88945313 -52.75 28.28515625 C-53.1625 27.86105469 -53.575 27.43695313 -54 27 C-51.97191687 21.52163591 -48.89585901 17.05542502 -45.625 12.25 C-45.0475 11.37472656 -44.47 10.49945313 -43.875 9.59765625 C-43.02808594 8.35048828 -43.02808594 8.35048828 -42.1640625 7.078125 C-41.65311035 6.31918945 -41.1421582 5.56025391 -40.61572266 4.77832031 C-38.7788438 2.75658782 -37.66673296 2.36269302 -35 2 C-34.10539062 2.96679688 -33.21078125 3.93359375 -32.2890625 4.9296875 C-25.32821084 12.43185297 -18.31333171 19.83832724 -11 27 C-7.22933534 18.04050033 -3.59082425 9.03258884 0 0 Z M-10 28 C-4.72898586 34.41069287 1.09128152 40.18590512 7 46 C9.2477975 43.94766315 10.0022242 42.99332739 11 40 C11.16677282 36.41656024 11.16677282 36.41656024 11 33 C10.01732141 31.79438816 10.01732141 31.79438816 8.15234375 31.90234375 C6.1015625 31.93489583 4.05078125 31.96744792 2 32 C2 30.68 2 29.36 2 28 C-1.96 28 -5.92 28 -10 28 Z " fill="#8154F1" transform="translate(54,24)"/>
<path d="M0 0 C3.38476564 2.35606236 6.21063206 4.96784375 9 8 C9.55300781 8.60070313 10.10601562 9.20140625 10.67578125 9.8203125 C16.15254582 17.44150038 14.41778301 28.08515337 14 37 C13.34 37 12.68 37 12 37 C11.814375 37.66 11.62875 38.32 11.4375 39 C8.08008874 46.00677133 2.89061193 50.96935134 -4.1875 54.15234375 C-13.42096561 56.93520769 -19.45572708 55.27213646 -28 51 C-28.33 58.26 -28.66 65.52 -29 73 C-34.28 73 -39.56 73 -45 73 C-45.02255209 63.36886982 -45.0409157 53.73775705 -45.05181217 44.10660648 C-45.05704074 39.63494451 -45.06413789 35.16330147 -45.07543945 30.69165039 C-45.08626929 26.37988027 -45.09227704 22.06812841 -45.09487724 17.75634575 C-45.09673132 16.10763702 -45.1003516 14.45892934 -45.10573006 12.81022835 C-45.11294178 10.50896128 -45.11399089 8.2077706 -45.11352539 5.90649414 C-45.115746 4.5941127 -45.11796661 3.28173126 -45.12025452 1.92958069 C-45 -1 -45 -1 -44 -2 C-41.64686445 -2.07271741 -39.29166332 -2.08370868 -36.9375 -2.0625 C-35.64714844 -2.05347656 -34.35679687 -2.04445312 -33.02734375 -2.03515625 C-32.02832031 -2.02355469 -31.02929688 -2.01195312 -30 -2 C-29.67 -0.68 -29.34 0.64 -29 2 C-28.484375 1.54625 -27.96875 1.0925 -27.4375 0.625 C-19.32020499 -4.78653001 -8.47872855 -4.35631225 0 0 Z M-24 14 C-28.17753855 18.397409 -29.31526252 21.86049191 -29.21484375 27.94140625 C-28.76016001 32.29810316 -26.74299239 35.144433 -23.9375 38.375 C-19.62339005 40.76152891 -15.82145828 40.74948951 -11 40 C-6.94423079 38.15646854 -5.40268437 36.64949093 -3.0625 32.875 C-1.20382923 27.69965925 -1.58282678 22.08108641 -3.875 17.09765625 C-6.14022321 13.88072468 -8.71339602 12.48099465 -12.375 11.4375 C-17.01182731 10.68141169 -19.94013876 11.53224121 -24 14 Z " fill="#000000" transform="translate(324,51)"/>
<path d="M0 0 C5.28 0 10.56 0 16 0 C16.33 7.92 16.66 15.84 17 24 C19.64 22.68 22.28 21.36 25 20 C30.79515734 18.8354668 36.95136189 19.94208504 42 23 C47.9048799 27.95173 49.76651132 32.563617 51 40 C51.2310069 42.92494721 51.23616441 45.82135668 51.1953125 48.75390625 C51.1924826 49.54022934 51.18965271 50.32655243 51.18673706 51.13670349 C51.17567289 53.61213359 51.15059591 56.08718199 51.125 58.5625 C51.11495234 60.2558541 51.10582965 61.94921395 51.09765625 63.64257812 C51.07749276 67.76197886 51.03832028 71.88056963 51 76 C45.72 76 40.44 76 35 76 C34.97421875 73.53144531 34.9484375 71.06289062 34.921875 68.51953125 C34.88342532 66.11992147 34.83827477 63.72052445 34.79248047 61.32104492 C34.76431351 59.65773737 34.74307767 57.99429704 34.72900391 56.33081055 C34.70751408 53.93469475 34.66083712 51.54016816 34.609375 49.14453125 C34.60814636 48.4047554 34.60691772 47.66497955 34.60565186 46.90278625 C34.46797124 42.01276895 33.54228573 39.39650767 30 36 C26.14448235 34.65895038 24.50052951 34.80167699 20.6875 36.3125 C17.92091219 37.72511938 17.92091219 37.72511938 17 40 C16.84323225 42.69655446 16.74163685 45.37129977 16.68359375 48.0703125 C16.66281265 48.86654022 16.64203156 49.66276794 16.62062073 50.48312378 C16.55515851 53.03032685 16.49625585 55.57763425 16.4375 58.125 C16.3943116 59.85027127 16.35069721 61.57553193 16.30664062 63.30078125 C16.19867755 67.53374872 16.09957993 71.76679371 16 76 C10.72 76 5.44 76 0 76 C0 50.92 0 25.84 0 0 Z " fill="#000000" transform="translate(344,28)"/>
<path d="M0 0 C4.596825 3.51710564 7.4389019 8.37920571 9.25 13.8125 C9.25 18.7625 9.25 23.7125 9.25 28.8125 C-3.29 28.8125 -15.83 28.8125 -28.75 28.8125 C-25.6660386 35.49712981 -25.6660386 35.49712981 -22.4375 37.25 C-17.89993673 38.19972255 -14.27077596 38.59057142 -10.0625 36.4375 C-9.299375 35.90125 -8.53625 35.365 -7.75 34.8125 C-5.96484375 33.5625 -5.96484375 33.5625 -3.75 32.8125 C-0.953125 33.7109375 -0.953125 33.7109375 2 35.1875 C2.98484375 35.66960937 3.9696875 36.15171875 4.984375 36.6484375 C6.10585938 37.22464844 6.10585938 37.22464844 7.25 37.8125 C4.96980879 44.03877553 1.20244001 47.83627999 -4.75 50.8125 C-5.74 50.8125 -6.73 50.8125 -7.75 50.8125 C-7.75 51.4725 -7.75 52.1325 -7.75 52.8125 C-18.86485662 53.23938639 -27.92116401 52.9319381 -36.890625 45.828125 C-43.28550316 38.89586212 -46.03948779 30.01177861 -45.75 20.8125 C-45.76804688 20.09578125 -45.78609375 19.3790625 -45.8046875 18.640625 C-45.62359436 11.34515857 -41.87362618 6.75194354 -36.75 1.8125 C-25.3156908 -6.74590719 -12.23266757 -7.83738009 0 0 Z M-26.75 11.8125 C-27.41 13.4625 -28.07 15.1125 -28.75 16.8125 C-21.82 16.8125 -14.89 16.8125 -7.75 16.8125 C-7.75 15.4925 -7.75 14.1725 -7.75 12.8125 C-8.41 12.8125 -9.07 12.8125 -9.75 12.8125 C-10.183125 11.8534375 -10.183125 11.8534375 -10.625 10.875 C-11.57823451 8.66043921 -11.57823451 8.66043921 -13.75 7.8125 C-19.54730856 7.33731077 -22.6050575 7.30182728 -26.75 11.8125 Z " fill="#000000" transform="translate(263.75,53.1875)"/>
<path d="M0 0 C4.32910275 3.64646978 7.66772623 8.20398511 8.1743927 13.99232483 C8.23104843 16.41010116 8.22470999 18.82001506 8.1953125 21.23828125 C8.1924826 22.11904831 8.18965271 22.99981537 8.18673706 23.90727234 C8.17557833 26.70915545 8.15048171 29.51071416 8.125 32.3125 C8.11496463 34.21679225 8.10583975 36.12108952 8.09765625 38.02539062 C8.07565309 42.68371797 8.04115294 47.34180406 8 52 C3.05 52 -1.9 52 -7 52 C-7.33 51.01 -7.66 50.02 -8 49 C-8.495 49.45375 -8.99 49.9075 -9.5 50.375 C-15.29801973 54.14371282 -23.22880965 55.2016773 -30 54 C-34.3928156 51.97306811 -37.80456866 49.30410692 -41.0625 45.75 C-42.91931383 40.3033461 -42.71169624 35.02271562 -40.8125 29.625 C-36.94789201 24.02798153 -31.57537025 20.73422782 -24.9375 19.37109375 C-19.57363295 18.49946535 -14.44183784 17.89345799 -9 18 C-9.495 15.03 -9.495 15.03 -10 12 C-14.41501433 10.28805567 -16.10525832 9.7315775 -20.75 11.125 C-23.78019531 12.8731896 -25.25741527 14.02735546 -27 17 C-31.85963179 16.39254603 -35.7405518 14.27241033 -40 12 C-39.58188612 7.12200473 -37.63597431 5.15117773 -34 2 C-23.66058923 -5.86694298 -11.30746775 -6.07088535 0 0 Z M-19.5625 31.5 C-20.57441406 31.7784375 -21.58632812 32.056875 -22.62890625 32.34375 C-23.41136719 32.5603125 -24.19382813 32.776875 -25 33 C-25.33 34.98 -25.66 36.96 -26 39 C-23.68515576 41.1367793 -22.27316474 41.95843145 -19.125 42.4375 C-15.20927421 41.88929839 -13.04990083 40.46896734 -10 38 C-10 37.34 -10 36.68 -10 36 C-10.99 36 -11.98 36 -13 36 C-13 34.02 -13 32.04 -13 30 C-15.19848934 30 -17.46622194 30.9217164 -19.5625 31.5 Z " fill="#000000" transform="translate(181,52)"/>
<path d="M0 0 C4.59650402 3.88149228 7.78723415 8.06356011 9 14 C9.08231525 15.34273815 9.11789309 16.68892787 9.11352539 18.03417969 C9.11344986 18.81468689 9.11337433 19.59519409 9.11329651 20.39935303 C9.10813522 21.23178528 9.10297394 22.06421753 9.09765625 22.921875 C9.0962413 23.78186096 9.09482635 24.64184692 9.09336853 25.52789307 C9.08778097 28.26863109 9.07523075 31.00928676 9.0625 33.75 C9.05748339 35.6106759 9.05292077 37.47135309 9.04882812 39.33203125 C9.03781561 43.88805246 9.02055951 48.44401228 9 53 C3.72 53 -1.56 53 -7 53 C-7.04898438 50.51984375 -7.09796875 48.0396875 -7.1484375 45.484375 C-7.2024716 43.07822721 -7.25976949 40.67217771 -7.31738281 38.26611328 C-7.35562857 36.59594059 -7.39048915 34.92568677 -7.421875 33.25537109 C-7.46762161 30.85224443 -7.52559925 28.44967416 -7.5859375 26.046875 C-7.59748871 25.30193787 -7.60903992 24.55700073 -7.62094116 23.78948975 C-7.73913631 18.56517651 -7.73913631 18.56517651 -10 14 C-13.83496597 12.3775144 -16.20258323 11.84954401 -20.3125 12.625 C-23.46078829 14.23575215 -23.84153717 14.73626008 -25 18 C-25.23582402 20.71215682 -25.37196504 23.33201064 -25.4140625 26.046875 C-25.43342865 26.81807678 -25.4527948 27.58927856 -25.4727478 28.3838501 C-25.53237077 30.83912205 -25.57885914 33.29444133 -25.625 35.75 C-25.66319575 37.41798882 -25.70224841 39.08595826 -25.7421875 40.75390625 C-25.83966639 44.83583474 -25.91936979 48.91756492 -26 53 C-31.28 53 -36.56 53 -42 53 C-42 34.85 -42 16.7 -42 -2 C-37.05 -2 -32.1 -2 -27 -2 C-26.67 -0.68 -26.34 0.64 -26 2 C-25.0925 1.360625 -24.185 0.72125 -23.25 0.0625 C-15.90966364 -4.59579038 -7.55358672 -4.0685628 0 0 Z " fill="#8154F3" transform="translate(459,51)"/>
<path d="M0 0 C4.95 0 9.9 0 15 0 C15.03738281 2.46855469 15.07476562 4.93710937 15.11328125 7.48046875 C15.15953688 9.88005261 15.21075571 12.27948297 15.26245117 14.67895508 C15.29563655 16.34227108 15.32368834 18.00569796 15.34643555 19.66918945 C15.38009999 22.06509499 15.4324194 24.45999035 15.48828125 26.85546875 C15.49467117 27.5952446 15.5010611 28.33502045 15.50764465 29.09721375 C15.63329971 33.54308862 16.2548976 36.46144732 19 40 C21.24512262 41.12256131 22.51456649 41.13413762 25 41.125 C25.70125 41.12757812 26.4025 41.13015625 27.125 41.1328125 C29.09153775 41.11377236 29.09153775 41.11377236 31 40 C31.65213292 37.97536745 31.65213292 37.97536745 32 36 C32.66 36 33.32 36 34 36 C33.99476318 34.94498291 33.98952637 33.88996582 33.98413086 32.80297852 C33.96608099 28.9024337 33.95456805 25.0018926 33.94506836 21.10131836 C33.9400281 19.41055684 33.93319595 17.71979971 33.92456055 16.02905273 C33.91248143 13.60399293 33.90676877 11.17899056 33.90234375 8.75390625 C33.89718246 7.99348526 33.89202118 7.23306427 33.88670349 6.44960022 C33.88650762 4.6326743 33.93802723 2.81586873 34 1 C35 0 35 0 38.125 -0.1328125 C39.40375 -0.13023438 40.6825 -0.12765625 42 -0.125 C43.27875 -0.12757812 44.5575 -0.13015625 45.875 -0.1328125 C49 0 49 0 50 1 C50.09353163 2.68801985 50.11744791 4.37995207 50.11352539 6.07055664 C50.11344986 7.15160172 50.11337433 8.23264679 50.11329651 9.34645081 C50.10813522 10.5224736 50.10297394 11.6984964 50.09765625 12.91015625 C50.0962413 14.10732773 50.09482635 15.30449921 50.09336853 16.53794861 C50.08774979 20.37949066 50.07519411 24.22097543 50.0625 28.0625 C50.05748741 30.65950437 50.05292409 33.25650965 50.04882812 35.85351562 C50.03777427 42.23569932 50.02049708 48.61783993 50 55 C45.05 55 40.1 55 35 55 C34.67 54.01 34.34 53.02 34 52 C33.236875 52.639375 32.47375 53.27875 31.6875 53.9375 C26.66981088 57.30651984 20.17775664 57.46594672 14.3359375 56.609375 C11.52354881 55.87570838 9.41796099 54.58894579 7 53 C6.67 53.66 6.34 54.32 6 55 C5.34 55 4.68 55 4 55 C2.74335022 52.09399739 2 50.20395416 2 47 C1.67402832 46.31268799 1.34805664 45.62537598 1.01220703 44.91723633 C-0.44721623 40.71109824 -0.24640517 36.74368469 -0.1953125 32.32421875 C-0.1924826 31.3990596 -0.18965271 30.47390045 -0.18673706 29.52070618 C-0.17557392 26.57617058 -0.15047637 23.63194312 -0.125 20.6875 C-0.11496521 18.68685336 -0.10584023 16.68620194 -0.09765625 14.68554688 C-0.07564722 9.7902465 -0.04114391 4.89517543 0 0 Z " fill="#8053EF" transform="translate(474,49)"/>
<path d="M0 0 C0.33 0.66 0.66 1.32 1 2 C5.95 2 10.9 2 16 2 C16 27.08 16 52.16 16 78 C10.72 78 5.44 78 0 78 C0 52.26 0 26.52 0 0 Z " fill="#8255F3" transform="translate(532,26)"/>
<path d="M0 0 C5.28 0 10.56 0 16 0 C16 25.08 16 50.16 16 76 C10.72 76 5.44 76 0 76 C0 50.92 0 25.84 0 0 Z " fill="#000000" transform="translate(197,28)"/>
<path d="M0 0 C4.95 0 9.9 0 15 0 C16.66165207 1.66165207 16.11959725 3.6651603 16.12442017 5.88401794 C16.12082489 6.58172806 16.11722961 7.27943817 16.11352539 7.99829102 C16.11367142 8.72995483 16.11381744 9.46161865 16.1139679 10.2154541 C16.11326867 12.64496784 16.10547585 15.07440583 16.09765625 17.50390625 C16.0957921 19.18399514 16.09436819 20.86408457 16.09336853 22.54417419 C16.08954307 26.97473643 16.07971256 31.4052661 16.06866455 35.83581543 C16.05845103 40.35342976 16.05387104 44.87104934 16.04882812 49.38867188 C16.03809031 58.25913123 16.02049329 67.12955781 16 76 C10.72 76 5.44 76 0 76 C0 50.92 0 25.84 0 0 Z " fill="#8354F4" transform="translate(556,28)"/>
<path d="M0 0 C1.32 1.32 2.64 2.64 4 4 C2.35 4 0.7 4 -1 4 C-1 7.3 -1 10.6 -1 14 C-3 12 -3 12 -3.3125 8.6875 C-2.98867205 4.86633018 -2.22414284 3.05819641 0 0 Z " fill="#000400" transform="translate(25,76)"/>
<path d="M0 0 C2.02045442 0.60183749 4.02111039 1.27306096 6 2 C6.33 2.66 6.66 3.32 7 4 C4.69 4 2.38 4 0 4 C0 2.68 0 1.36 0 0 Z " fill="#000100" transform="translate(56,52)"/>
<path d="M0 0 C1.65 0 3.3 0 5 0 C5 0.33 5 0.66 5 1 C3.35 1 1.7 1 0 1 C0 0.67 0 0.34 0 0 Z " fill="#000000" transform="translate(272,123)"/>
<path d="M0 0 C2 1 2 1 2 1 Z " fill="#000000" transform="translate(481,104)"/>
<path d="M0 0 C2 1 2 1 2 1 Z " fill="#000000" transform="translate(144,104)"/>
<path d="" fill="#000000" transform="translate(0,0)"/>
<path d="" fill="#000100" transform="translate(0,0)"/>
<path d="M0 0 C2 1 2 1 2 1 Z " fill="#000100" transform="translate(70,24)"/>
<path d="" fill="#000000" transform="translate(0,0)"/>
<path d="" fill="#000000" transform="translate(0,0)"/>
<path d="" fill="#000100" transform="translate(0,0)"/>
<path d="" fill="#000000" transform="translate(0,0)"/>
</svg>
