<svg width="290" height="79" viewBox="0 0 290 79" fill="none" xmlns="http://www.w3.org/2000/svg">
<path fill-rule="evenodd" clip-rule="evenodd" d="M9.29035 49.4468L28.7567 29.5561C32.3895 25.8441 38.3259 25.7973 42.0161 29.4517C42.0212 29.4567 42.0262 29.4617 42.0313 29.4667L56.5094 43.8693C56.6443 44.0035 56.8618 44.0023 56.9952 43.8666C57.1226 43.737 57.1281 43.5302 57.0077 43.394L51.0902 36.6964C50.4099 35.9264 50.3618 34.7813 50.9751 33.9563L53.6623 30.3414C55.3367 28.0889 58.5094 27.6283 60.7486 29.3126C61.0308 29.5249 61.2902 29.7662 61.5226 30.0326L78.5752 49.5857C79.7704 50.9562 79.6349 53.0418 78.2725 54.2441C77.6738 54.7724 76.9046 55.0637 76.1083 55.0637H11.6289C9.81652 55.0637 8.34727 53.5858 8.34727 51.7626C8.34727 50.8961 8.686 50.0643 9.29035 49.4468Z" fill="url(#paint0_linear_1393_1443)"/>
<path fill-rule="evenodd" clip-rule="evenodd" d="M96.6631 54.3223L101.635 24.6779H109.17L115.035 40.483L120.861 24.6779H128.396L133.367 54.3223H125.794L123.269 37.2591L116.355 54.3223H113.326L106.762 37.2591L104.237 54.3223H96.6631ZM153.922 43.2058L150.618 33.5714L147.315 43.2058H153.922ZM156.463 49.1719H145.508L143.747 54.3223H135.57L146.799 24.6779H155.172L166.401 54.3223H158.224L156.463 49.1719ZM186.317 32.305C185.473 31.6272 184.63 31.1254 183.786 30.7995C182.943 30.4736 182.126 30.3107 181.335 30.3107C180.333 30.3107 179.516 30.5453 178.883 31.0146C178.251 31.4838 177.934 32.0964 177.934 32.8525C177.934 33.3738 178.093 33.804 178.409 34.1429C178.725 34.4818 179.14 34.7751 179.654 35.0227C180.168 35.2704 180.748 35.4855 181.394 35.6679C182.04 35.8504 182.679 36.0459 183.312 36.2545C185.842 37.0887 187.694 38.2032 188.867 39.5979C190.04 40.9926 190.626 42.8109 190.626 45.0529C190.626 46.5649 190.369 47.9335 189.855 49.1588C189.341 50.3841 188.59 51.4333 187.601 52.3067C186.613 53.18 185.401 53.8578 183.964 54.3401C182.527 54.8223 180.9 55.0635 179.081 55.0635C175.312 55.0635 171.819 53.9555 168.604 51.7396L171.925 45.5612C173.085 46.5779 174.231 47.3339 175.365 47.8293C176.498 48.3246 177.618 48.5722 178.725 48.5722C179.99 48.5722 180.933 48.2855 181.552 47.7119C182.172 47.1384 182.481 46.4867 182.481 45.7568C182.481 45.3136 182.402 44.9291 182.244 44.6032C182.086 44.2773 181.822 43.9775 181.453 43.7038C181.084 43.4301 180.603 43.1759 180.01 42.9413C179.417 42.7066 178.699 42.446 177.855 42.1592C176.854 41.8464 175.872 41.5009 174.91 41.1229C173.948 40.7449 173.091 40.2431 172.34 39.6174C171.589 38.9918 170.982 38.2032 170.521 37.2517C170.06 36.3001 169.829 35.0944 169.829 33.6345C169.829 32.1747 170.073 30.8516 170.561 29.6655C171.048 28.4793 171.734 27.4626 172.617 26.6154C173.5 25.7681 174.58 25.1099 175.859 24.6406C177.137 24.1714 178.567 23.9368 180.149 23.9368C181.625 23.9368 183.167 24.1388 184.775 24.5429C186.382 24.947 187.924 25.54 189.4 26.3221L186.317 32.305ZM211.275 32.305C210.432 31.6272 209.588 31.1254 208.745 30.7995C207.902 30.4736 207.084 30.3107 206.294 30.3107C205.292 30.3107 204.475 30.5453 203.842 31.0146C203.21 31.4838 202.893 32.0964 202.893 32.8525C202.893 33.3738 203.052 33.804 203.368 34.1429C203.684 34.4818 204.099 34.7751 204.613 35.0227C205.127 35.2704 205.707 35.4855 206.353 35.6679C206.999 35.8504 207.638 36.0459 208.271 36.2545C210.801 37.0887 212.653 38.2032 213.826 39.5979C214.999 40.9926 215.585 42.8109 215.585 45.0529C215.585 46.5649 215.328 47.9335 214.814 49.1588C214.3 50.3841 213.549 51.4333 212.56 52.3067C211.572 53.18 210.359 53.8578 208.923 54.3401C207.486 54.8223 205.859 55.0635 204.04 55.0635C200.271 55.0635 196.778 53.9555 193.562 51.7396L196.884 45.5612C198.043 46.5779 199.19 47.3339 200.323 47.8293C201.457 48.3246 202.577 48.5722 203.684 48.5722C204.949 48.5722 205.892 48.2855 206.511 47.7119C207.131 47.1384 207.44 46.4867 207.44 45.7568C207.44 45.3136 207.361 44.9291 207.203 44.6032C207.045 44.2773 206.781 43.9775 206.412 43.7038C206.043 43.4301 205.562 43.1759 204.969 42.9413C204.376 42.7066 203.658 42.446 202.814 42.1592C201.813 41.8464 200.831 41.5009 199.869 41.1229C198.907 40.7449 198.05 40.2431 197.299 39.6174C196.548 38.9918 195.941 38.2032 195.48 37.2517C195.019 36.3001 194.788 35.0944 194.788 33.6345C194.788 32.1747 195.032 30.8516 195.52 29.6655C196.007 28.4793 196.693 27.4626 197.576 26.6154C198.459 25.7681 199.539 25.1099 200.818 24.6406C202.096 24.1714 203.526 23.9368 205.108 23.9368C206.584 23.9368 208.126 24.1388 209.733 24.5429C211.341 24.947 212.883 25.54 214.359 26.3221L211.275 32.305ZM227.33 24.6779V54.3223H219.99V24.6779H227.33ZM239.303 24.6779L246.397 42.724L253.53 24.6779H261.832L249.437 54.3223H243.357L231.001 24.6779H239.303ZM281.653 31.2044H272.483V36.1582H281.141V42.6847H272.483V47.7958H281.653V54.3223H264.769V24.6779H281.653V31.2044Z" fill="#1B222D"/>
<defs>
<linearGradient id="paint0_linear_1393_1443" x1="27.9096" y1="53.8722" x2="57.3312" y2="32.653" gradientUnits="userSpaceOnUse">
<stop offset="0.288159" stop-color="#FF9964"/>
<stop offset="1" stop-color="#FF6E63"/>
</linearGradient>
</defs>
</svg>
