<svg width="290" height="79" viewBox="0 0 290 79" fill="none" xmlns="http://www.w3.org/2000/svg">
<path fill-rule="evenodd" clip-rule="evenodd" d="M8.82332 49.1503L28.2896 29.2597C31.9225 25.5476 37.8589 25.5009 41.5491 29.1552C41.5541 29.1602 41.5592 29.1652 41.5642 29.1702L56.0423 43.5728C56.1772 43.707 56.3948 43.7058 56.5282 43.5701C56.6556 43.4405 56.661 43.2337 56.5407 43.0975L50.6232 36.4C49.9429 35.63 49.8948 34.4849 50.508 33.6598L53.1952 30.0449C54.8697 27.7924 58.0423 27.3318 60.2816 29.0162C60.5638 29.2284 60.8232 29.4698 61.0555 29.7362L78.1082 49.2892C79.3034 50.6597 79.1679 52.7454 77.8054 53.9477C77.2068 54.476 76.4376 54.7673 75.6413 54.7673H11.1619C9.34949 54.7673 7.88025 53.2893 7.88025 51.4662C7.88025 50.5996 8.21898 49.7679 8.82332 49.1503Z" fill="url(#paint0_linear_1401_462)"/>
<path fill-rule="evenodd" clip-rule="evenodd" d="M96.196 54.0261L101.168 24.3817H108.703L114.568 40.1868L120.394 24.3817H127.929L132.9 54.0261H125.326L122.802 36.9629L115.888 54.0261H112.859L106.295 36.9629L103.77 54.0261H96.196ZM153.455 42.9095L150.151 33.275L146.848 42.9095H153.455ZM155.996 48.8757H145.041L143.28 54.0261H135.103L146.332 24.3817H154.705L165.934 54.0261H157.757L155.996 48.8757ZM185.849 32.0088C185.006 31.331 184.163 30.8292 183.319 30.5033C182.476 30.1774 181.658 30.0145 180.868 30.0145C179.866 30.0145 179.049 30.2491 178.416 30.7184C177.784 31.1876 177.467 31.8002 177.467 32.5563C177.467 33.0776 177.626 33.5078 177.942 33.8467C178.258 34.1856 178.673 34.4789 179.187 34.7265C179.701 34.9742 180.281 35.1893 180.927 35.3717C181.573 35.5542 182.212 35.7497 182.845 35.9583C185.375 36.7925 187.227 37.907 188.4 39.3017C189.573 40.6964 190.159 42.5147 190.159 44.7567C190.159 46.2687 189.902 47.6373 189.388 48.8626C188.874 50.0878 188.123 51.1371 187.134 52.0105C186.146 52.8838 184.934 53.5616 183.497 54.0439C182.06 54.5261 180.433 54.7673 178.614 54.7673C174.845 54.7673 171.352 53.6593 168.137 51.4434L171.458 45.265C172.617 46.2817 173.764 47.0377 174.897 47.5331C176.031 48.0284 177.151 48.276 178.258 48.276C179.523 48.276 180.466 47.9893 181.085 47.4157C181.705 46.8422 182.014 46.1905 182.014 45.4605C182.014 45.0174 181.935 44.6328 181.777 44.307C181.619 43.9811 181.355 43.6813 180.986 43.4076C180.617 43.1339 180.136 42.8797 179.543 42.6451C178.95 42.4104 178.232 42.1498 177.388 41.863C176.387 41.5502 175.405 41.2047 174.443 40.8267C173.481 40.4487 172.624 39.9469 171.873 39.3212C171.122 38.6956 170.515 37.907 170.054 36.9554C169.593 36.0039 169.362 34.7982 169.362 33.3383C169.362 31.8784 169.606 30.5554 170.094 29.3693C170.581 28.1831 171.267 27.1664 172.15 26.3192C173.033 25.4719 174.113 24.8137 175.392 24.3444C176.67 23.8752 178.1 23.6406 179.682 23.6406C181.158 23.6406 182.7 23.8426 184.308 24.2467C185.915 24.6508 187.457 25.2438 188.933 26.0259L185.849 32.0088ZM210.808 32.0088C209.965 31.331 209.121 30.8292 208.278 30.5033C207.434 30.1774 206.617 30.0145 205.826 30.0145C204.825 30.0145 204.008 30.2491 203.375 30.7184C202.743 31.1876 202.426 31.8002 202.426 32.5563C202.426 33.0776 202.584 33.5078 202.901 33.8467C203.217 34.1856 203.632 34.4789 204.146 34.7265C204.66 34.9742 205.24 35.1893 205.886 35.3717C206.532 35.5542 207.171 35.7497 207.803 35.9583C210.334 36.7925 212.185 37.907 213.358 39.3017C214.531 40.6964 215.118 42.5147 215.118 44.7567C215.118 46.2687 214.861 47.6373 214.347 48.8626C213.833 50.0878 213.082 51.1371 212.093 52.0105C211.105 52.8838 209.892 53.5616 208.456 54.0439C207.019 54.5261 205.392 54.7673 203.573 54.7673C199.804 54.7673 196.311 53.6593 193.095 51.4434L196.416 45.265C197.576 46.2817 198.723 47.0377 199.856 47.5331C200.99 48.0284 202.11 48.276 203.217 48.276C204.482 48.276 205.425 47.9893 206.044 47.4157C206.663 46.8422 206.973 46.1905 206.973 45.4605C206.973 45.0174 206.894 44.6328 206.736 44.307C206.578 43.9811 206.314 43.6813 205.945 43.4076C205.576 43.1339 205.095 42.8797 204.502 42.6451C203.909 42.4104 203.191 42.1498 202.347 41.863C201.346 41.5502 200.364 41.2047 199.402 40.8267C198.439 40.4487 197.583 39.9469 196.832 39.3212C196.08 38.6956 195.474 37.907 195.013 36.9554C194.552 36.0039 194.321 34.7982 194.321 33.3383C194.321 31.8784 194.565 30.5554 195.052 29.3693C195.54 28.1831 196.225 27.1664 197.108 26.3192C197.991 25.4719 199.072 24.8137 200.35 24.3444C201.629 23.8752 203.059 23.6406 204.64 23.6406C206.116 23.6406 207.658 23.8426 209.266 24.2467C210.874 24.6508 212.416 25.2438 213.892 26.0259L210.808 32.0088ZM226.863 24.3817V54.0261H219.522V24.3817H226.863ZM238.836 24.3817L245.93 42.4278L253.063 24.3817H261.365L248.97 54.0261H242.89L230.534 24.3817H238.836ZM281.186 30.9082H272.016V35.862H280.674V42.3885H272.016V47.4996H281.186V54.0261H264.302V24.3817H281.186V30.9082Z" fill="white"/>
<defs>
<linearGradient id="paint0_linear_1401_462" x1="27.4425" y1="53.5758" x2="56.8642" y2="32.3566" gradientUnits="userSpaceOnUse">
<stop offset="0.288159" stop-color="#FF9964"/>
<stop offset="1" stop-color="#FF6E63"/>
</linearGradient>
</defs>
</svg>
