<svg width="132" height="28" viewBox="0 0 132 28" fill="none" xmlns="http://www.w3.org/2000/svg"><path d="M1.95597 20.1209C1.24071 21.6335 2.9711 23.1276 4.36326 22.1995L13.2746 16.2586L16.7731 21.397C17.5624 22.5563 19.3122 22.4207 19.9136 21.1537L25.9178 8.50413C26.4456 7.39205 25.6346 6.10938 24.4036 6.10938H18.7985C18.3748 6.10938 17.9646 6.25753 17.6387 6.52819L13.2746 10.1526L11.2465 6.97801C10.478 5.77514 8.68582 5.88893 8.07562 7.17934L1.95597 20.1209Z" fill="url(#paint0_linear_2445_22794)"></path><mask id="mask0_2445_22794" style="mask-type:alpha" maskUnits="userSpaceOnUse" x="1" y="6" width="26" height="17"><path d="M1.95597 20.1209C1.24071 21.6335 2.9711 23.1276 4.36326 22.1995L13.2746 16.2586L16.7731 21.397C17.5624 22.5563 19.3122 22.4207 19.9136 21.1537L25.9178 8.50413C26.4456 7.39205 25.6346 6.10938 24.4036 6.10938H18.7985C18.3748 6.10938 17.9646 6.25753 17.6387 6.52819L13.2746 10.1526L11.2465 6.97801C10.478 5.77514 8.68582 5.88893 8.07562 7.17934L1.95597 20.1209Z" fill="url(#paint1_linear_2445_22794)"></path></mask><g mask="url(#mask0_2445_22794)"><g style="mix-blend-mode:difference" opacity="0.35"><path d="M26.2251 7.54157C26.2251 7.54157 26.2242 7.46174 26.207 7.34712C26.1474 7.02971 25.9478 6.77213 25.7272 6.57626C25.4333 6.46555 24.9658 6.5704 24.2224 7.18987C22.2421 8.84015 17.9514 12.4708 17.9514 12.4708L20.9747 12.2232L13.1617 16.3656L6.89453 20.2271C9.36995 17.7516 12.1754 15.1112 12.1754 15.1112L10.6477 15.0838L19.2517 6.54629C19.5287 6.27142 19.9032 6.11719 20.2934 6.11719H24.9927C24.9927 6.11719 25.3853 6.27254 25.7272 6.57626C26.06 6.70159 26.1704 7.10317 26.207 7.34712C26.2188 7.40962 26.2251 7.47444 26.2251 7.54157Z" fill="#2539F3"></path></g><path d="M25.5357 6.50642C25.5357 6.50642 24.6622 5.53187 22.6819 7.18215C20.7015 8.83243 16.4108 12.463 16.4108 12.463L19.4341 12.2155L4.39515 22.1782C4.39515 22.1782 4.13767 22.4073 3.78312 22.4782C2.56382 22.6261 2.33426 22.1803 2.21875 21.936C2.21875 21.936 2.88772 22.4638 3.99342 21.5909C4.61785 21.098 10.6349 15.1035 10.6349 15.1035H7.29622L17.733 6.4499C17.9984 6.22988 18.3323 6.10947 18.677 6.10947H24.2117C24.2117 6.10947 25.2056 6.01134 25.5357 6.50642Z" fill="url(#paint2_linear_2445_22794)"></path></g><g clip-path="url(#clip0_2445_22794)"><path fill-rule="evenodd" clip-rule="evenodd" d="M59.2042 20.4499C59.58 20.3442 59.8971 20.1857 60.1554 19.9743L59.5389 18.4065C59.2101 18.6649 58.799 18.7941 58.3058 18.7941C57.8948 18.7941 57.5718 18.6766 57.337 18.4418C57.1138 18.1952 57.0023 17.8428 57.0023 17.3849V12.9106H59.5213V11.1491H57.0023V9H54.8004V11.1491H54.3322L53.503 12.9106H54.8004V17.4377C54.8004 18.4711 55.0822 19.2579 55.6459 19.7981C56.2096 20.3383 57.0082 20.6084 58.0416 20.6084C58.4526 20.6084 58.8401 20.5556 59.2042 20.4499ZM39.1831 10.9729C40.3692 10.9729 41.3204 11.3193 42.0368 12.0122C42.7531 12.7051 43.1113 13.7326 43.1113 15.0949V20.4851H40.9094V15.3767C40.9094 14.5547 40.7156 13.9381 40.3281 13.5271C39.9406 13.1043 39.3886 12.893 38.6723 12.893C37.862 12.893 37.222 13.1396 36.7522 13.6328C36.2825 14.1143 36.0476 14.813 36.0476 15.729V20.4851H33.8457V11.0786H35.9419V12.294C36.306 11.8595 36.764 11.5307 37.3159 11.3076C37.8678 11.0845 38.4903 10.9729 39.1831 10.9729ZM48.7117 20.6084C47.9484 20.6084 47.2027 20.5086 46.4746 20.309C45.7465 20.1093 45.1652 19.8569 44.7307 19.5515L45.5762 17.8781C45.999 18.1599 46.5039 18.3889 47.0911 18.5651C47.69 18.7295 48.2772 18.8117 48.8526 18.8117C50.1679 18.8117 50.8255 18.4653 50.8255 17.7724C50.8255 17.4436 50.6553 17.2146 50.3147 17.0854C49.9859 16.9562 49.4515 16.8329 48.7117 16.7155C47.9366 16.598 47.3025 16.463 46.8093 16.3103C46.3278 16.1577 45.905 15.8934 45.541 15.5176C45.1887 15.1301 45.0125 14.5958 45.0125 13.9146C45.0125 13.0221 45.3824 12.3117 46.1223 11.7832C46.8738 11.243 47.8838 10.9729 49.1521 10.9729C49.798 10.9729 50.4439 11.0492 51.0898 11.2019C51.7356 11.3428 52.2641 11.5366 52.6751 11.7832L51.8296 13.4567C51.031 12.9869 50.1327 12.752 49.1345 12.752C48.4886 12.752 47.9954 12.8519 47.6548 13.0515C47.326 13.2394 47.1616 13.4919 47.1616 13.809C47.1616 14.1613 47.3377 14.4137 47.69 14.5664C48.0541 14.7073 48.6119 14.8424 49.3635 14.9716C50.1151 15.089 50.7316 15.2241 51.2131 15.3767C51.6945 15.5294 52.1056 15.7877 52.4461 16.1518C52.7984 16.5158 52.9746 17.0325 52.9746 17.7019C52.9746 18.5827 52.5929 19.2873 51.8296 19.8158C51.0663 20.3442 50.027 20.6084 48.7117 20.6084ZM67.0825 10.9598C67.9925 10.9598 68.8034 11.1582 69.5151 11.5549C70.2385 11.9516 70.8043 12.5116 71.2127 13.2349C71.621 13.9583 71.8252 14.7925 71.8252 15.7375C71.8252 16.6826 71.621 17.5226 71.2127 18.2576C70.8043 18.981 70.2385 19.541 69.5151 19.9377C68.8034 20.3344 67.9925 20.5327 67.0825 20.5327C65.8225 20.5327 64.8249 20.1127 64.0899 19.2726V23.8053H61.9023V11.0649H63.9849V12.2899C64.3466 11.8465 64.7899 11.514 65.315 11.2924C65.8516 11.0707 66.4408 10.9598 67.0825 10.9598ZM66.8375 18.6601C67.6425 18.6601 68.3017 18.3918 68.8151 17.8551C69.3401 17.3184 69.6026 16.6126 69.6026 15.7375C69.6026 14.8625 69.3401 14.1566 68.8151 13.6199C68.3017 13.0833 67.6425 12.8149 66.8375 12.8149C66.3125 12.8149 65.84 12.9374 65.42 13.1824C64.9999 13.4158 64.6674 13.7541 64.4224 14.1975C64.1774 14.6408 64.0549 15.1542 64.0549 15.7375C64.0549 16.3209 64.1774 16.8342 64.4224 17.2776C64.6674 17.7209 64.9999 18.0651 65.42 18.3101C65.84 18.5435 66.3125 18.6601 66.8375 18.6601ZM75.9824 12.4299C76.6124 11.4499 77.7208 10.9598 79.3075 10.9598V13.0424C79.1208 13.0074 78.9517 12.9899 78.8 12.9899C77.9483 12.9899 77.2833 13.2408 76.8049 13.7424C76.3266 14.2325 76.0874 14.9442 76.0874 15.8775V20.4102H73.8998V11.0649H75.9824V12.4299ZM82.7229 19.9202C83.4812 20.3285 84.3329 20.5327 85.278 20.5327C86.2347 20.5327 87.0922 20.3285 87.8506 19.9202C88.6089 19.5118 89.1981 18.946 89.6181 18.2226C90.0498 17.4876 90.2656 16.6592 90.2656 15.7375C90.2656 14.8158 90.0498 13.9933 89.6181 13.2699C89.1981 12.5466 88.6089 11.9807 87.8506 11.5724C87.0922 11.164 86.2347 10.9598 85.278 10.9598C84.3329 10.9598 83.4812 11.164 82.7229 11.5724C81.9645 11.9807 81.3695 12.5466 80.9378 13.2699C80.5178 13.9933 80.3078 14.8158 80.3078 15.7375C80.3078 16.6592 80.5178 17.4876 80.9378 18.2226C81.3695 18.946 81.9645 19.5118 82.7229 19.9202ZM87.273 17.8551C86.748 18.3918 86.083 18.6601 85.278 18.6601C84.4729 18.6601 83.8079 18.3918 83.2829 17.8551C82.7695 17.3184 82.5129 16.6126 82.5129 15.7375C82.5129 14.8625 82.7695 14.1566 83.2829 13.6199C83.8079 13.0833 84.4729 12.8149 85.278 12.8149C86.083 12.8149 86.748 13.0833 87.273 13.6199C87.798 14.1566 88.0606 14.8625 88.0606 15.7375C88.0606 16.6126 87.798 17.3184 87.273 17.8551ZM98.0001 20.4102L95.6025 17.1726L93.1874 20.4102H90.7723L94.4125 15.6675L90.9298 11.0649H93.3624L95.655 14.1275L97.9476 11.0649H100.31L96.8101 15.6325L100.468 20.4102H98.0001ZM110.959 18.9926V11.0649H108.771V15.265C108.771 16.175 108.538 16.8692 108.071 17.3476C107.616 17.8259 106.998 18.0651 106.216 18.0651C105.516 18.0651 104.974 17.8609 104.589 17.4526C104.215 17.0326 104.029 16.4084 104.029 15.58V11.0649H101.841V15.86C101.841 17.2367 102.197 18.2693 102.909 18.9576C103.632 19.646 104.618 19.9902 105.866 19.9902C106.45 19.9902 106.992 19.891 107.494 19.6927C107.995 19.4827 108.421 19.1851 108.771 18.8001V19.2376C108.771 20.1943 108.544 20.9002 108.089 21.3552C107.645 21.8219 106.945 22.0552 105.989 22.0552C105.359 22.0552 104.758 21.9561 104.186 21.7577C103.614 21.5594 103.13 21.2911 102.734 20.9527L101.754 22.5978C102.255 23.0294 102.891 23.3561 103.661 23.5778C104.443 23.8111 105.26 23.9278 106.111 23.9278C109.343 23.9278 110.959 22.2828 110.959 18.9926Z" fill="#ffffff"></path></g><defs><linearGradient id="paint0_linear_2445_22794" x1="25.0288" y1="6.25983" x2="13.2334" y2="25.5001" gradientUnits="userSpaceOnUse"><stop stop-color="#1620CF"></stop><stop offset="0.427387" stop-color="#555EF4"></stop><stop offset="1" stop-color="#555EF4"></stop></linearGradient><linearGradient id="paint1_linear_2445_22794" x1="25.0288" y1="6.25983" x2="13.2334" y2="25.5001" gradientUnits="userSpaceOnUse"><stop stop-color="#1620CF"></stop><stop offset="0.427387" stop-color="#555EF4"></stop><stop offset="1" stop-color="#555EF4"></stop></linearGradient><linearGradient id="paint2_linear_2445_22794" x1="21.8385" y1="4.43599" x2="14.093" y2="22.51" gradientUnits="userSpaceOnUse"><stop stop-color="#57F3E0"></stop><stop offset="1" stop-color="#57C4F3"></stop></linearGradient><clipPath id="clip0_2445_22794"><rect width="78.1395" height="17.4614" fill="white" transform="translate(33.8613 7.97656)"></rect></clipPath></defs></svg>