<svg width="150" height="32" viewBox="0 0 150 32" fill="none" xmlns="http://www.w3.org/2000/svg">
<path fill-rule="evenodd" clip-rule="evenodd" d="M1 25.305L2.17278 25.3059L20.2143 7.26444L20.213 6.09197L24.908 10.787L23.7353 10.7857L5.69392 28.8271L5.69499 30L1 25.305ZM17.2209 5.02285L14.2901 7.95366L12.1732 5.8368L7.61418 10.3958L9.73104 12.5127L6.80023 15.4435L2.77739 11.4204V9.37021L11.1477 1H13.1983L17.2209 5.02285ZM25.9771 13.7791L23.0463 16.7099L25.1632 18.8268L20.6042 23.3858L18.4873 21.269L15.5565 24.1998L19.5796 28.2226H21.6298L30 19.8523V17.8016L25.9771 13.7791Z" fill="#25B894"/>
<path fill-rule="evenodd" clip-rule="evenodd" d="M33.6071 8.00558H51.0965V11.5035H33.6071V8.00558Z" fill="#171717"/>
<path d="M133.949 12.1593H124.767V15.6572H133.949V12.1593Z" fill="#171717"/>
<path d="M44.5397 11.2849H40.1674V25.4951H44.5397V11.2849Z" fill="#171717"/>
<path d="M56.3425 8.00558H52.4073V25.495H56.3425V8.00558Z" fill="#171717"/>
<path d="M87.1673 12.1593H83.4508V25.495H87.1673V12.1593Z" fill="#171717"/>
<path d="M107.937 8.00558H104.002V25.495H107.937V8.00558Z" fill="#171717"/>
<path d="M130.237 8.00558V21.5599C130.237 21.6806 130.334 21.7785 130.455 21.7785H133.953V25.7136H130.455C128.161 25.7136 126.301 23.854 126.301 21.5599V8.00558H130.237Z" fill="#171717"/>
<path d="M60.0603 12.0499C63.0184 12.0499 65.4164 14.448 65.4164 17.4061V25.4949H61.6999V17.4061C61.6999 16.5005 60.9658 15.7664 60.0603 15.7664H54.5948V12.0499H60.0603Z" fill="#171717"/>
<path d="M77.0041 12.0499C79.5396 12.0499 81.5951 14.1054 81.5951 16.6409V21.0133C81.5951 23.5488 79.5396 25.6043 77.0041 25.6043H71.9759C69.4403 25.6043 67.3849 23.5488 67.3849 21.0133V16.6409C67.3849 14.1054 69.4403 12.0499 71.9759 12.0499H77.0041ZM77.0041 15.5478H71.9759C71.3722 15.5478 70.8828 16.0372 70.8828 16.6409V21.0133C70.8828 21.617 71.3722 22.1064 71.9759 22.1064H77.0041C77.6078 22.1064 78.0972 21.617 78.0972 21.0133V16.6409C78.0972 16.0372 77.6078 15.5478 77.0041 15.5478Z" fill="#171717"/>
<path d="M93.8343 12.0499V15.5478H90.9922C88.8189 15.5478 87.0571 17.3096 87.0571 19.483V25.6043H83.5592V19.483C83.5592 15.3778 86.8871 12.0499 90.9922 12.0499H93.8343Z" fill="#171717"/>
<path d="M104.44 12.1593V15.6572H99.4886C98.9518 15.6572 98.537 16.0602 98.537 16.5317V21.1227C98.537 21.5941 98.9518 21.9971 99.4886 21.9971H104.44V25.495H99.4886C97.0423 25.495 95.0391 23.549 95.0391 21.1227V16.5317C95.0391 14.1054 97.0423 12.1593 99.4886 12.1593H104.44Z" fill="#171717"/>
<path d="M119.742 12.1593C121.674 12.1593 123.24 13.7254 123.24 15.6572V25.495H119.742V15.6572H113.839C113.718 15.6572 113.621 15.7551 113.621 15.8758H110.123C110.123 13.8233 111.787 12.1593 113.839 12.1593H119.742Z" fill="#171717"/>
<path d="M145.322 12.1593C147.254 12.1593 148.82 13.7254 148.82 15.6572V25.495H145.322V15.6572H139.42C139.299 15.6572 139.201 15.7551 139.201 15.8758H135.703C135.703 13.8233 137.367 12.1593 139.42 12.1593H145.322Z" fill="#171717"/>
<path d="M120.179 16.9688C121.869 16.9688 123.24 18.3391 123.24 20.0294V21.2318C123.24 23.5862 121.331 25.4949 118.977 25.4949H113.183C111.493 25.4949 110.123 24.1246 110.123 22.4342V20.0294C110.123 18.3391 111.493 16.9688 113.183 16.9688H120.179ZM119.742 20.4666H113.621V21.997H118.977C119.385 21.997 119.719 21.6768 119.741 21.2738L119.742 21.2318V20.4666Z" fill="#171717"/>
<path d="M145.76 16.9688C147.45 16.9688 148.82 18.3391 148.82 20.0294V21.2318C148.82 23.5862 146.912 25.4949 144.557 25.4949H138.764C137.073 25.4949 135.703 24.1246 135.703 22.4342V20.0294C135.703 18.3391 137.073 16.9688 138.764 16.9688H145.76ZM145.322 20.4666H139.201V21.997H144.557C144.966 21.997 145.299 21.6768 145.321 21.2738L145.322 21.2318V20.4666Z" fill="#171717"/>
</svg>
